<?xml version="1.0" encoding="UTF-8"?>
<svg width="100" height="100" viewBox="0 0 100 100" fill="none" xmlns="http://www.w3.org/2000/svg">
  <!-- Bottle Body -->
  <path d="M35 20H65V85C65 87.7614 62.7614 90 60 90H40C37.2386 90 35 87.7614 35 85V20Z" fill="#007AFF"/>
  <!-- Bottle Cap -->
  <path d="M40 15H60V20H40V15Z" fill="#007AFF"/>
  <!-- Water Level -->
  <path d="M40 30H60V70C60 72.7614 57.7614 75 55 75H45C42.2386 75 40 72.7614 40 70V30Z" fill="white" fill-opacity="0.3"/>
  <!-- Water Drops -->
  <path d="M45 80C45 82.7614 47.2386 85 50 85C52.7614 85 55 82.7614 55 80C55 77.2386 52.7614 75 50 75C47.2386 75 45 77.2386 45 80Z" fill="white" fill-opacity="0.3"/>
</svg> 